<svg width="300" height="300" viewBox="0 0 300 300" fill="none" xmlns="http://www.w3.org/2000/svg">
<path d="M147.402 4.5C148.557 2.5 151.443 2.5 152.598 4.5L277.306 220.5C278.46 222.5 277.017 225 274.708 225H25.2923C22.9829 225 21.5396 222.5 22.6943 220.5L147.402 4.5Z" fill="#E83A1D"/>
<path d="M147.402 29.5C148.557 27.5 151.443 27.5 152.598 29.5L255.655 208C256.81 210 255.366 212.5 253.057 212.5H46.943C44.6336 212.5 43.1902 210 44.3449 208L147.402 29.5Z" fill="white"/>
<rect x="143.222" y="105" width="17.7778" height="90" fill="black"/>
<rect width="9.18594" height="45.9297" transform="matrix(0.684241 -0.729256 0.684241 0.729256 121 128.278)" fill="black"/>
</svg>
