<svg width="38" height="34" viewBox="0 0 38 34" fill="none" xmlns="http://www.w3.org/2000/svg">
<path d="M34.9854 3.32734C33.0184 1.18171 30.3192 0 27.3847 0C25.1912 0 23.1823 0.697424 21.4138 2.07274C20.5215 2.76695 19.7129 3.61628 19 4.6076C18.2874 3.61657 17.4785 2.76695 16.5859 2.07274C14.8177 0.697424 12.8088 0 10.6153 0C7.68077 0 4.98135 1.18171 3.01427 3.32734C1.07066 5.4479 0 8.34489 0 11.485C0 14.717 1.19765 17.6756 3.76892 20.7959C6.06912 23.587 9.37505 26.4205 13.2034 29.7015C14.5106 30.8219 15.9924 32.092 17.531 33.4449C17.9375 33.8029 18.459 34 19 34C19.5407 34 20.0625 33.8029 20.4684 33.4454C22.007 32.0923 23.4897 30.8216 24.7975 29.7006C28.6252 26.4202 31.9312 23.587 34.2314 20.7956C36.8026 17.6756 38 14.717 38 11.4848C38 8.34489 36.9293 5.4479 34.9854 3.32734Z" fill="white"/>
</svg>
