<svg width="500" height="100" viewBox="0 0 500 100" fill="none" xmlns="http://www.w3.org/2000/svg">
<rect width="500" height="100" rx="20" fill="#FB8500"/>
<path d="M60.2044 46.9636L99.2715 1.50909C99.3715 1.39349 99.4762 1.28391 99.5852 1.18056C100.385 0.422435 101.416 0 102.501 0L128.546 0C130.256 0 131.81 1.05454 132.513 2.69091C133.208 4.33636 132.921 6.25454 131.775 7.58181L95.3214 50L131.775 92.409C132.921 93.7454 133.216 95.6636 132.513 97.2999C131.81 98.9454 130.256 99.9999 128.546 99.9999L102.501 99.9999C101.391 99.9999 100.337 99.55 99.5292 98.7697C99.4402 98.6837 99.3542 98.5938 99.2715 98.4999L60.2044 53.0454C58.7199 51.3181 58.7199 48.6818 60.2044 46.9636Z" fill="#33393B"/>
<path d="M132.513 2.69091C131.81 1.05454 130.256 0 128.546 0L139.016 0L131.775 7.58181C132.921 6.25454 133.208 4.33636 132.513 2.69091Z" fill="#33393B"/>
<path d="M102.501 0C101.416 0 100.385 0.422435 99.5852 1.18056L100.713 0L102.501 0Z" fill="#33393B"/>
<path d="M132.513 97.2999C133.216 95.6636 132.921 93.7454 131.775 92.409L139.024 99.9999L128.546 99.9999C130.256 99.9999 131.81 98.9454 132.513 97.2999Z" fill="#33393B"/>
<path d="M99.5292 98.7697C100.337 99.55 101.391 99.9999 102.501 99.9999H100.704L99.5292 98.7697Z" fill="#33393B"/>
<path d="M116.635 46.9636L155.702 1.50909C155.802 1.39349 155.906 1.28391 156.015 1.18056C156.815 0.422435 157.846 0 158.931 0L184.976 0C186.686 0 188.24 1.05454 188.943 2.69091C189.638 4.33636 189.351 6.25454 188.205 7.58181L151.752 50L188.205 92.409C189.351 93.7454 189.647 95.6636 188.943 97.2999C188.24 98.9454 186.686 99.9999 184.976 99.9999L158.931 99.9999C157.821 99.9999 156.767 99.55 155.959 98.7697C155.87 98.6837 155.784 98.5938 155.702 98.4999L116.635 53.0454C115.15 51.3181 115.15 48.6818 116.635 46.9636Z" fill="#33393B"/>
<path d="M188.943 2.69091C188.24 1.05454 186.686 0 184.976 0L195.446 0L188.205 7.58181C189.351 6.25454 189.638 4.33636 188.943 2.69091Z" fill="#33393B"/>
<path d="M158.931 0C157.846 0 156.815 0.422435 156.015 1.18056L157.143 0L158.931 0Z" fill="#33393B"/>
<path d="M188.943 97.2999C189.647 95.6636 189.351 93.7454 188.205 92.409L195.455 99.9999L184.976 99.9999C186.686 99.9999 188.24 98.9454 188.943 97.2999Z" fill="#33393B"/>
<path d="M155.959 98.7697C156.767 99.55 157.821 99.9999 158.931 99.9999H157.134L155.959 98.7697Z" fill="#33393B"/>
<path d="M439.796 46.9636L400.729 1.50909C400.629 1.39349 400.524 1.28391 400.415 1.18056C399.615 0.422435 398.584 0 397.499 0L371.454 0C369.744 0 368.19 1.05454 367.487 2.69091C366.792 4.33636 367.079 6.25454 368.225 7.58181L404.679 50L368.225 92.409C367.079 93.7454 366.784 95.6636 367.487 97.2999C368.19 98.9454 369.744 99.9999 371.454 99.9999L397.499 99.9999C398.609 99.9999 399.663 99.55 400.471 98.7697C400.56 98.6837 400.646 98.5938 400.729 98.4999L439.796 53.0454C441.28 51.3181 441.28 48.6818 439.796 46.9636Z" fill="#33393B"/>
<path d="M367.487 2.69091C368.19 1.05454 369.744 0 371.454 0L360.984 0L368.225 7.58181C367.079 6.25454 366.792 4.33636 367.487 2.69091Z" fill="#33393B"/>
<path d="M397.499 0C398.584 0 399.615 0.422435 400.415 1.18056L399.287 0L397.499 0Z" fill="#33393B"/>
<path d="M367.487 97.2999C366.784 95.6636 367.079 93.7454 368.225 92.409L360.976 99.9999L371.454 99.9999C369.744 99.9999 368.19 98.9454 367.487 97.2999Z" fill="#33393B"/>
<path d="M400.471 98.7697C399.663 99.55 398.609 99.9999 397.499 99.9999H399.296L400.471 98.7697Z" fill="#33393B"/>
<path d="M383.365 46.9636L344.298 1.50909C344.198 1.39349 344.094 1.28391 343.985 1.18056C343.185 0.422435 342.154 0 341.069 0L315.024 0C313.314 0 311.76 1.05454 311.057 2.69091C310.362 4.33636 310.649 6.25454 311.795 7.58181L348.248 50L311.795 92.409C310.649 93.7454 310.353 95.6636 311.057 97.2999C311.76 98.9454 313.314 99.9999 315.024 99.9999L341.069 99.9999C342.179 99.9999 343.233 99.55 344.041 98.7697C344.13 98.6837 344.216 98.5938 344.298 98.4999L383.365 53.0454C384.85 51.3181 384.85 48.6818 383.365 46.9636Z" fill="#33393B"/>
<path d="M311.057 2.69091C311.76 1.05454 313.314 0 315.024 0L304.554 0L311.795 7.58181C310.649 6.25454 310.362 4.33636 311.057 2.69091Z" fill="#33393B"/>
<path d="M341.069 0C342.154 0 343.185 0.422435 343.985 1.18056L342.857 0L341.069 0Z" fill="#33393B"/>
<path d="M311.057 97.2999C310.353 95.6636 310.649 93.7454 311.795 92.409L304.545 99.9999L315.024 99.9999C313.314 99.9999 311.76 98.9454 311.057 97.2999Z" fill="#33393B"/>
<path d="M344.041 98.7697C343.233 99.55 342.179 99.9999 341.069 99.9999H342.866L344.041 98.7697Z" fill="#33393B"/>
</svg>
