<svg width="120" height="384" viewBox="0 0 120 384" fill="none" xmlns="http://www.w3.org/2000/svg">
<path d="M105.981 237.31H15.1402L0 0H120L105.981 237.31ZM102.056 366.443C90.4673 378.148 76.6355 384 60.5607 384C44.486 384 30.4673 378.148 18.5047 366.443C6.91589 354.36 1.1215 340.201 1.1215 323.965C1.1215 307.351 6.91589 293.192 18.5047 281.487C30.4673 269.404 44.486 263.363 60.5607 263.363C76.6355 263.363 90.4673 269.404 102.056 281.487C114.019 293.192 120 307.351 120 323.965C120 340.201 114.019 354.36 102.056 366.443Z" fill="white"/>
</svg>
