<svg width="481" height="200" viewBox="0 0 481 200" fill="none" xmlns="http://www.w3.org/2000/svg">
<path d="M168 195.266H126.881V174.753C112.261 191.584 91.8974 200 65.7902 200C48.5594 200 33.2867 194.477 19.972 183.432C6.65734 172.124 0 156.607 0 136.884C0 116.634 6.52681 101.249 19.5804 90.7298C32.8951 80.2104 48.2984 74.9507 65.7902 74.9507C92.6806 74.9507 113.044 83.1032 126.881 99.4083V71.0059C126.881 59.9606 122.834 51.2821 114.741 44.9704C106.648 38.6588 95.9441 35.503 82.6294 35.503C61.4825 35.503 42.8158 43.524 26.6294 59.5661L9.79021 30.7692C31.1981 10.2564 57.697 0 89.2867 0C112.522 0 131.45 5.52269 146.07 16.5681C160.69 27.6134 168 45.1019 168 69.0335V195.266ZM81.8462 171.598C102.471 171.598 117.483 165.023 126.881 151.874V123.077C117.483 109.928 102.471 103.353 81.8462 103.353C70.0979 103.353 60.4382 106.509 52.8671 112.821C45.296 119.132 41.5105 127.416 41.5105 137.673C41.5105 147.929 45.296 156.213 52.8671 162.525C60.4382 168.573 70.0979 171.598 81.8462 171.598Z" fill="white"/>
<path d="M277.455 71L327.893 42V75.0827H481V124.146H327.893V158L277.455 129L227 100L277.455 71Z" fill="white"/>
</svg>
