<svg width="544" height="169" viewBox="0 0 544 169" fill="none" xmlns="http://www.w3.org/2000/svg">
<rect x="1.81348" width="89" height="169" rx="12" fill="#E83A1D"/>
<rect x="7.81348" y="6" width="77" height="157" rx="8" fill="white"/>
<path d="M7.81349 72.4999L7.81349 90.4999L84.8135 46L84.8135 28L7.81349 72.4999Z" fill="#E83A1D"/>
<path d="M7.81349 103.5L7.81349 121.5L84.8135 77L84.8135 59L7.81349 103.5Z" fill="#E83A1D"/>
<rect x="114.439" width="89" height="169" rx="12" fill="#E83A1D"/>
<rect x="120.439" y="6" width="77" height="157" rx="8" fill="white"/>
<path d="M120.44 103.5L120.44 121.5L197.44 77L197.44 59L120.44 103.5Z" fill="#E83A1D"/>
<rect width="89" height="169" rx="12" transform="matrix(-1 0 0 1 316.066 0)" fill="#E83A1D"/>
<rect width="77" height="157" rx="8" transform="matrix(-1 0 0 1 310.066 6)" fill="white"/>
<path d="M310.066 72.4999L310.066 90.4999L233.066 46L233.066 28L310.066 72.4999Z" fill="#E83A1D"/>
<path d="M310.066 103.5L310.066 121.5L233.066 77L233.066 59L310.066 103.5Z" fill="#E83A1D"/>
<path d="M310.066 134.5L310.066 152.5L233.066 108L233.066 90L310.066 134.5Z" fill="#E83A1D"/>
<rect width="89" height="169" rx="12" transform="matrix(-1 0 0 1 428.692 0)" fill="#E83A1D"/>
<rect width="77" height="157" rx="8" transform="matrix(-1 0 0 1 422.692 6)" fill="white"/>
<path d="M422.692 72.4999L422.692 90.4999L345.692 46L345.692 28L422.692 72.4999Z" fill="#E83A1D"/>
<path d="M422.692 103.5L422.692 121.5L345.692 77L345.692 59L422.692 103.5Z" fill="#E83A1D"/>
<rect width="89" height="169" rx="12" transform="matrix(-1 0 0 1 541.319 0)" fill="#E83A1D"/>
<rect width="77" height="157" rx="8" transform="matrix(-1 0 0 1 535.319 6)" fill="white"/>
<path d="M535.319 103.5L535.319 121.5L458.319 77L458.319 59L535.319 103.5Z" fill="#E83A1D"/>
</svg>
