<svg width="200" height="68" viewBox="0 0 200 68" fill="none" xmlns="http://www.w3.org/2000/svg">
<path d="M4.9165 58.4792H0V9.32812H4.9165V58.4792Z" fill="#E83A1D"/>
<path d="M29.499 52.7047H22.7411L11.8071 40.1899L22.7411 27.8877H29.499L18.565 40.1899L29.499 52.7047ZM41.1164 52.7047H34.3585L23.4245 40.1899L34.3585 27.8877H41.1164L30.1823 40.1899L41.1164 52.7047Z" fill="#E83A1D"/>
<path d="M57.119 27.8104H51.576V7.22297L47.0012 12.0126L43.8501 8.61349L52.3163 0H57.1V27.8104H57.119Z" fill="#E83A1D"/>
<path d="M92.5788 24.7586C92.5788 28.8336 91.1741 32.3099 88.3457 35.1875C85.5173 38.0651 82.1004 39.4942 78.095 39.4942C74.0897 39.4942 70.6728 38.0651 67.8444 35.1875C65.016 32.3099 63.6113 28.8336 63.6113 24.7586C63.6113 20.6836 65.016 17.2073 67.8444 14.3297C70.6728 11.4521 74.0897 10.0229 78.095 10.0229C82.1004 10.0229 85.5742 11.4521 88.3837 14.2911C91.1931 17.13 92.5788 20.6257 92.5788 24.7586ZM90.4528 24.7586C90.4528 21.2437 89.2379 18.2502 86.8271 15.8168C84.4163 13.3834 81.493 12.1666 78.0761 12.1666C74.6592 12.1666 71.6789 13.3834 69.2681 15.8168C66.8573 18.2502 65.6424 21.2244 65.6424 24.7586C65.6424 28.2929 66.8573 31.209 69.2681 33.7004C71.6789 36.1724 74.6213 37.4278 78.0761 37.4278C81.531 37.4278 84.4163 36.1918 86.8271 33.7004C89.2379 31.2284 90.4528 28.2349 90.4528 24.7586ZM84.8529 33.2369H82.0435L77.7344 26.5547H74.7921V33.2369H72.5331V16.3382H79.291C80.7526 16.3382 82.0055 16.821 83.0496 17.7673C84.0936 18.7137 84.6251 19.9497 84.6251 21.4948C84.6251 23.117 84.1126 24.353 83.0875 25.2221C82.0624 26.0719 81.1703 26.516 80.392 26.516L84.8339 33.2562L84.8529 33.2369ZM82.3282 21.4948C82.3282 20.6064 82.0245 19.8724 81.3981 19.2737C80.7906 18.675 80.0883 18.366 79.31 18.366H74.7921V24.4882H79.31C80.0883 24.4882 80.7716 24.1985 81.3981 23.6191C82.0055 23.0397 82.3282 22.3252 82.3282 21.4948Z" fill="#E83A1D"/>
<path d="M117.313 20.1625H106.986V28.0807C108.22 26.5937 109.872 25.319 111.941 24.2568C114.01 23.1946 116.25 22.6538 118.68 22.6538C125.779 22.6538 129.348 26.2074 129.348 33.2952V57.0692H122.172V35.941C122.172 33.4883 121.584 31.7308 120.426 30.6879C119.268 29.645 117.617 29.1236 115.472 29.1236C113.782 29.1236 112.188 29.5678 110.688 30.4368C109.188 31.3252 107.954 32.3874 107.005 33.6428V57.0692H99.8298V20.1431H95.5967V15.8364H99.8298V10.6992H107.005V15.8364H117.332V20.1431L117.313 20.1625Z" fill="#E83A1D"/>
<path d="M154.5 57.0889H147.324L133.866 23.5039H141.516L151.501 49.7887C154.006 46.0806 155.981 41.8704 157.442 37.1387C158.904 32.4071 159.625 27.8686 159.625 23.5039H166.801C166.801 28.9694 165.643 34.8019 163.346 40.9627C161.049 47.1235 158.088 52.5118 154.5 57.0889V57.0889Z" fill="#E83A1D"/>
<path d="M191.934 59.8694C191.934 58.5754 190.947 57.9188 188.992 57.9188C183.525 57.9188 179.159 56.5282 175.875 53.7472C172.591 50.9661 170.958 47.1808 170.958 42.4106C170.958 37.3506 172.591 32.6769 175.875 28.3702C179.159 24.0634 183.714 20.2974 189.542 17.1108H172.04V10.7183H198.825V16.0679C192.636 19.5829 187.663 23.5613 183.961 27.9839C180.241 32.4065 178.399 37.0416 178.399 41.8505C178.399 44.9985 179.424 47.3933 181.474 49.0156C183.525 50.6379 186.334 51.449 189.884 51.449C193.433 51.449 195.673 51.9897 197.154 53.0906C198.635 54.1721 199.375 55.9102 199.375 58.2664C199.375 60.6225 198.255 63.9637 196.034 68H188.384C190.757 64.4851 191.934 61.762 191.934 59.8694V59.8694Z" fill="#E83A1D"/>
</svg>
