<svg width="149" height="114" viewBox="0 0 149 114" fill="none" xmlns="http://www.w3.org/2000/svg">
<path d="M55.27 45.03C55.27 51.98 52.72 57.6 47.63 61.91C42.53 66.22 35.67 68.38 27.05 68.38C15.18 68.38 6.16 64.96 0 58.13L8.73999 47.55C13.33 52.82 19.43 55.45 27.05 55.45C30.86 55.45 33.85 54.5 36.04 52.59C38.22 50.69 39.32 48.33 39.32 45.53C39.32 42.51 38.28 40.07 36.21 38.22C34.14 36.37 31.25 35.45 27.56 35.45C21.96 35.45 17.2 37.41 13.28 41.33L2.01999 37.63V0H50.74V12.94H18.15V29.24C22.07 25.54 27.16 23.7 33.44 23.7C39.72 23.7 44.78 25.55 48.98 29.24C53.18 32.94 55.28 38.2 55.28 45.03H55.27ZM115.58 0.00999832L43.84 112.07H31.07L102.64 0.00999832H115.58ZM148.51 94.59C148.51 100.97 145.76 105.68 140.28 108.7C134.79 111.72 128.02 113.24 119.95 113.24C111.88 113.24 105.28 111.73 99.79 108.7C94.3 105.68 91.56 100.97 91.56 94.59C91.56 90.67 93.07 87.11 96.1 83.92C99.12 80.73 102.93 78.57 107.52 77.45C103.15 76.44 99.59 74.57 96.85 71.82C94.1 69.08 92.73 65.75 92.73 61.82C92.73 55.77 95.42 51.27 100.79 48.3C106.17 45.33 112.55 43.85 119.94 43.85C127.33 43.85 133.88 45.34 139.26 48.3C144.64 51.27 147.32 55.78 147.32 61.82C147.32 65.74 145.95 69.04 143.2 71.73C140.45 74.42 136.96 76.32 132.7 77.44C137.18 78.56 140.93 80.72 143.96 83.91C146.98 87.1 148.5 90.66 148.5 94.58L148.51 94.59ZM132.55 92.91C132.55 90 131.06 87.7 128.1 86.02C125.13 84.34 122.41 83.39 119.95 83.16C117.49 83.5 114.8 84.48 111.89 86.1C108.98 87.72 107.52 89.99 107.52 92.9C107.52 95.48 108.67 97.47 110.96 98.86C113.25 100.26 116.25 100.96 119.95 100.96C123.65 100.96 126.67 100.26 129.02 98.86C131.37 97.46 132.55 95.47 132.55 92.9V92.91ZM131.37 64.01C131.37 61.55 130.33 59.64 128.26 58.3C126.19 56.96 123.41 56.28 119.94 56.28C116.47 56.28 113.86 56.95 111.79 58.3C109.72 59.64 108.68 61.55 108.68 64.01C108.68 68.15 112.43 70.96 119.94 72.41C127.56 71.07 131.36 68.27 131.36 64.01H131.37Z" fill="white"/>
</svg>
