<svg width="480" height="480" viewBox="0 0 480 480" fill="none" xmlns="http://www.w3.org/2000/svg">
<path d="M226.144 24C232.302 13.3333 247.698 13.3333 253.856 24L433.99 336C440.148 346.667 432.45 360 420.133 360H59.8667C47.5499 360 39.8519 346.667 46.0103 336L226.144 24Z" fill="#FB8500"/>
<path d="M231.34 35C235.189 28.3333 244.811 28.3333 248.66 35L421.865 335C425.714 341.667 420.903 350 413.205 350H66.7949C59.0969 350 54.2857 341.667 58.1347 335L231.34 35Z" fill="white"/>
<path d="M234.804 49C237.113 45 242.887 45 245.196 49L408.009 331C410.318 335 407.432 340 402.813 340H77.1872C72.5684 340 69.6817 335 71.9911 331L234.804 49Z" fill="#FB8500"/>
</svg>
